<?xml version="1.0" encoding="utf-8"?>
<!-- Generator: Adobe Illustrator 23.0.3, SVG Export Plug-In . SVG Version: 6.00 Build 0)  -->
<svg version="1.1" id="Layer_1" xmlns="http://www.w3.org/2000/svg" xmlns:xlink="http://www.w3.org/1999/xlink" x="0px" y="0px"
	 viewBox="0 0 90 90" style="enable-background:new 0 0 90 90;" xml:space="preserve">
<style type="text/css">
	.st0{opacity:0.1;}
	.st1{fill:#2962FF;}
</style>
<g class="st0">
	<circle class="st1" cx="45" cy="45" r="45"/>
</g>
<g>
	<path class="st1" d="M65.2,24.6H59c-0.1,0-0.2,0-0.2,0.1c-0.5,0.6-0.1,1.2,0.4,1.2h5.3c0.1,0,0.1,0,0.1,0.1v26.2
		c0,0.1,0,0.2,0.1,0.2c0.6,0.5,1.2,0.1,1.2-0.4V25.3C65.9,24.9,65.5,24.6,65.2,24.6z"/>
	<path class="st1" d="M65.1,54.2c-0.3,0.1-0.5,0.4-0.5,0.7v8.8c0,1.3-0.9,2.3-2.2,2.5c-1.5,0.2-2.8-1-2.8-2.4V49.1
		c0-1.9-1.5-3.7-3.4-3.8C53.9,45.1,52,46.8,52,49v4.4c0,1.3-0.9,2.3-2.2,2.5c-1.5,0.2-2.8-1-2.8-2.4v-3.3l3.4-3.4
		c0.5-0.5,0.6-1.1,0.5-1.7l8.1-8.1c0.7-0.7,0.7-1.8,0-2.5l-8.7-8.7h5.9c0.3,0,0.6-0.2,0.7-0.5c0.1-0.4-0.2-0.8-0.6-0.8H49L47.5,23
		c-0.7-0.7-1.8-0.7-2.5,0l-8.1,8.1c-0.1,0-0.3-0.1-0.4-0.1c-0.5,0-0.9,0.2-1.3,0.5l-3.5,3.5c-0.7,0.7-0.7,1.8,0,2.5l4.6,4.7
		c-2,2-4.4,3.8-7.1,5.4c-0.8,0.5-1.5,1-2.2,1.7c-1.2,1.2-2.1,2.7-2.6,4.1c-0.4,1.5-0.2,2.8,0.6,3.6c0.5,0.5,1.3,0.8,2.2,0.8
		c1.3,0,2.8-0.6,4.3-1.7c0.3-0.2,0.4-0.6,0.1-0.9c-0.2-0.3-0.6-0.4-0.9-0.1c-1.9,1.4-3.9,1.8-4.7,1c-0.5-0.5-0.5-1.3-0.2-2.3
		c0.3-1.2,1.1-2.4,2.2-3.5c0.6-0.6,1.3-1.1,2-1.5c2.8-1.6,5.3-3.5,7.4-5.6l1.6,1.6c-2.1,2.1-4,4.6-5.6,7.4c-0.2,0.3-0.4,0.7-0.7,1
		c-0.2,0.2-0.2,0.6,0,0.8c0.1,0.2,0.3,0.2,0.5,0.2c0.2,0,0.4-0.1,0.5-0.3c0.3-0.4,0.6-0.8,0.8-1.2c1.6-2.7,3.4-5.1,5.4-7.1l4.6,4.7
		c0.3,0.3,0.8,0.5,1.3,0.5c0,0,0.1,0,0.1,0v2.6c0,1.9,1.5,3.7,3.4,3.8c2.2,0.2,4.1-1.6,4.1-3.8v-4.5c0-1.3,0.9-2.3,2.2-2.5
		c1.5-0.2,2.8,1,2.8,2.4v14.6c0,1.9,1.5,3.7,3.4,3.8c2.2,0.2,4.1-1.6,4.1-3.8v-8.9C65.9,54.4,65.5,54.1,65.1,54.2z M45.9,23.9
		c0.2-0.2,0.5-0.2,0.7,0l11.6,11.6c0.2,0.2,0.2,0.5,0,0.7L50.2,44L47.1,41l1.3-1.3c0.3-0.3,0.3-0.7,0-0.9c-0.3-0.3-0.7-0.3-0.9,0
		L46.2,40l-4.7-4.7l1.3-1.3c0.3-0.3,0.3-0.7,0-0.9c-0.3-0.3-0.7-0.3-0.9,0l-1.3,1.3l-0.7-0.7l5.3-5.3c0.3-0.3,0.3-0.7,0-0.9
		c-0.3-0.3-0.7-0.3-0.9,0l-5.3,5.3L38,31.8L45.9,23.9z M45.4,49.4L32.6,36.6c-0.2-0.2-0.2-0.5,0-0.7l3.5-3.5
		c0.1-0.1,0.2-0.1,0.3-0.1c0.1,0,0.2,0,0.3,0.1l12.8,12.8c0.2,0.2,0.2,0.5,0,0.7l-3.5,3.5c-0.1,0.1-0.2,0.1-0.3,0.1
		S45.5,49.5,45.4,49.4z"/>
	<path class="st1" d="M37.2,37.8c-0.3-0.3-0.7-0.3-0.9,0s-0.3,0.7,0,0.9l7,7c0.1,0.1,0.3,0.2,0.5,0.2c0.2,0,0.3-0.1,0.5-0.2
		c0.3-0.3,0.3-0.7,0-0.9L37.2,37.8z"/>
	<path class="st1" d="M61.5,38.5L61.5,38.5c-0.3,0-0.5,0.1-0.6,0.3c-0.3,0.6,0.3,1.2,0.8,0.9c0.2-0.1,0.3-0.2,0.4-0.4
		C62.3,39,61.9,38.5,61.5,38.5z"/>
	<path class="st1" d="M62,40.3c-0.3,0-0.5,0.1-0.6,0.4c-0.2,0.5,0.2,0.9,0.6,0.9h0c0.3,0,0.5-0.2,0.6-0.4
		C62.8,40.7,62.5,40.3,62,40.3C62,40.3,62,40.3,62,40.3L62,40.3z"/>
	<path class="st1" d="M57.9,42.3c-0.4,0-0.8,0.4-0.6,0.8c0.1,0.2,0.2,0.4,0.4,0.4c0.5,0.2,1-0.3,0.8-0.9
		C58.4,42.5,58.2,42.3,57.9,42.3L57.9,42.3z"/>
</g>
</svg>
