<?xml version="1.0" encoding="utf-8"?>
<!-- Generator: Adobe Illustrator 23.0.3, SVG Export Plug-In . SVG Version: 6.00 Build 0)  -->
<svg version="1.1" id="Layer_1" xmlns="http://www.w3.org/2000/svg" xmlns:xlink="http://www.w3.org/1999/xlink" x="0px" y="0px"
	 viewBox="0 0 90 90" style="enable-background:new 0 0 90 90;" xml:space="preserve">
<style type="text/css">
	.st0{opacity:0.1;}
	.st1{fill:#2962FF;}
</style>
<g class="st0">
	<circle class="st1" cx="45" cy="45" r="45"/>
</g>
<g>
	<path class="st1" d="M66.8,66H60V37.7c0-8.7-7.3-15.7-16-15.2c-7.9,0.5-14.1,7-14.1,15V66h-6.7c-0.4,0-0.7,0.3-0.8,0.6
		c-0.1,0.5,0.3,0.9,0.7,0.9h43.6c0.5,0,0.8-0.4,0.7-0.9C67.5,66.3,67.2,66,66.8,66z M53.6,31.3h-7.9v-4.5
		C48.9,27.1,51.8,28.7,53.6,31.3z M44.3,50.2h-9.8v-1.5h9.8V50.2z M45.7,48.7h9.8v1.5h-9.8V48.7z M45.7,47.2V32.9h8.8
		c0.7,1.4,1,3,1,4.5v9.8H45.7z M44.3,31.3h-7.9c1.8-2.6,4.7-4.3,7.9-4.5V31.3z M34.5,37.4c0-1.6,0.4-3.1,1-4.5h8.8v14.3h-9.8V37.4z
		 M34.5,51.7h9.8V66h-9.8V51.7z M45.7,66V51.7h9.8V66H45.7z M57,66V37.4c0-1.9-0.5-3.8-1.4-5.6c0,0,0,0,0,0c-2.1-4-6.2-6.5-10.7-6.5
		s-8.6,2.5-10.7,6.5c0,0,0,0,0,0c-0.9,1.7-1.4,3.6-1.4,5.6V66h-1.5V37.5c0-7.6,6.2-13.8,13.8-13.7C52.6,24,58.5,30,58.5,37.4V66H57z
		"/>
	<path class="st1" d="M39.4,34.4c-1.9,0-3.4,1.5-3.4,3.4V45c0,0.4,0.3,0.8,0.8,0.8H42c0.4,0,0.8-0.3,0.8-0.8v-7.2
		C42.7,35.9,41.2,34.4,39.4,34.4z M41.3,44.1h-3.8v-6.4c0-0.9,0.6-1.7,1.5-1.9c1.2-0.2,2.3,0.7,2.3,1.8V44.1z"/>
	<path class="st1" d="M39.4,53.2c-1.9,0-3.4,1.5-3.4,3.4v7.2c0,0.4,0.3,0.8,0.8,0.8H42c0.4,0,0.8-0.3,0.8-0.8v-7.2
		C42.7,54.7,41.2,53.2,39.4,53.2z M41.3,63h-3.8v-6.4c0-0.9,0.6-1.7,1.5-1.9c1.2-0.2,2.3,0.7,2.3,1.8V63z"/>
	<path class="st1" d="M50.6,34.4c-1.9,0-3.4,1.5-3.4,3.4V45c0,0.4,0.3,0.8,0.8,0.8h5.3c0.4,0,0.8-0.3,0.8-0.8v-7.2
		C54,35.9,52.5,34.4,50.6,34.4z M52.5,44.1h-3.8v-6.4c0-0.9,0.6-1.7,1.5-1.9c1.2-0.2,2.3,0.7,2.3,1.8V44.1z"/>
	<path class="st1" d="M50.6,53.2c-1.9,0-3.4,1.5-3.4,3.4v7.2c0,0.4,0.3,0.8,0.8,0.8h5.3c0.4,0,0.8-0.3,0.8-0.8v-7.2
		C54,54.7,52.5,53.2,50.6,53.2z M52.5,63h-3.8v-6.4c0-0.9,0.6-1.7,1.5-1.9c1.2-0.2,2.3,0.7,2.3,1.8V63z"/>
</g>
</svg>
