<?xml version="1.0" encoding="utf-8"?>
<!-- Generator: Adobe Illustrator 23.0.3, SVG Export Plug-In . SVG Version: 6.00 Build 0)  -->
<svg version="1.1" id="Layer_1" xmlns="http://www.w3.org/2000/svg" xmlns:xlink="http://www.w3.org/1999/xlink" x="0px" y="0px"
	 viewBox="0 0 90 90" style="enable-background:new 0 0 90 90;" xml:space="preserve">
<style type="text/css">
	.st0{opacity:0.1;}
	.st1{fill:#2962FF;}
</style>
<g class="st0">
	<circle class="st1" cx="45" cy="45" r="45"/>
</g>
<g>
	<g>
		<path class="st1" d="M50.3,54c1.9,0,3.5-1.6,3.5-3.5s-1.6-3.5-3.5-3.5s-3.5,1.6-3.5,3.5S48.4,54,50.3,54z M50.3,48.8
			c1,0,1.8,0.8,1.8,1.8c0,1-0.8,1.8-1.8,1.8s-1.8-0.8-1.8-1.8S49.3,48.8,50.3,48.8z"/>
		<path class="st1" d="M72.2,55h-1.8v-5.3c0-0.4-0.3-0.8-0.7-0.8c-0.5-0.1-0.9,0.3-0.9,0.8V55H66l0.8-1c0.2-0.2,0.2-0.5,0.1-0.8
			l-0.4-1.2l0.6-1.1c0.1-0.2,0.1-0.5,0-0.8l-0.6-1.1l0.4-1.2h0.5c0.1,0,0.3,0,0.4-0.1c0.4-0.2,0.5-0.6,0.5-0.9
			c-0.8-4.1-3.1-7.8-6.3-10.5c-2.9-2.4-6.6-3.9-10.4-4.2l-1.1-2.8c1.9-0.1,3.4-1.8,3.2-3.8c-0.2-1.7-1.8-3.1-3.5-3.1
			c-10.1,0-17.5,5-22,9.4c-0.4-0.4-1-0.6-1.7-0.6h-7c-1.4,0-2.6,1.2-2.6,2.6v15.8c0,1.4,1.2,2.6,2.6,2.6h7c1.1,0,2.1-0.7,2.4-1.8
			h4.3c0,0.2,0,0.3,0.1,0.4l0.6,1.1l-0.4,1.2c-0.1,0.3,0,0.6,0.1,0.8l0.8,1h-6.2c-0.4,0-0.8,0.3-0.8,0.7c-0.1,0.5,0.3,0.9,0.8,0.9
			h6.1c0,0.1,0.1,0.3,0.2,0.4l1,0.8l0.1,1.3c0,0.3,0.2,0.5,0.4,0.7l1.1,0.6l0.3,1.2c0.1,0.3,0.3,0.5,0.5,0.6l1.2,0.4l0.5,1.2
			c0.1,0.3,0.3,0.4,0.6,0.5l1.3,0.2l0.7,1c0.2,0.2,0.4,0.4,0.7,0.3l1.3,0l0.9,0.9c0.2,0.2,0.5,0.3,0.8,0.2l1.2-0.3l1.1,0.7
			c0.2,0.2,0.5,0.2,0.8,0.1l1.2-0.5l1.2,0.5c0.1,0,0.2,0.1,0.3,0.1c0.2,0,0.3,0,0.5-0.1l1.1-0.7l1.2,0.3c0.3,0.1,0.6,0,0.8-0.2
			l0.9-0.9l1.3,0c0.3,0,0.5-0.1,0.7-0.3l0.7-1l1.3-0.2c0.3,0,0.5-0.2,0.6-0.5l0.5-1.2l1.2-0.4c0.3-0.1,0.5-0.3,0.5-0.6l0.3-1.2
			l1.1-0.6c0.2-0.1,0.4-0.4,0.4-0.7l0.1-1.3l1-0.8c0.1-0.1,0.2-0.3,0.2-0.3h6.1c0.3,0,0.7-0.2,0.8-0.5C73.3,55.6,72.8,55,72.2,55z
			 M66.4,46.2h-5.7c-0.9-2.1-2.3-3.9-4.2-5.1C56.4,41,56.2,41,56.1,41H44.5c-0.2,0-0.3,0-0.5,0.1c-1.9,1.3-3.4,3.1-4.2,5.1h-5.7
			c0.9-3.3,2.8-6.4,5.5-8.6c3-2.5,6.8-3.8,10.7-3.8s7.7,1.4,10.7,3.8C63.6,39.9,65.6,42.9,66.4,46.2z M33.9,48.9h-4.8v-5.4h4.2
			c-0.5,1.1-0.8,2.2-1,3.4c0,0.1,0,0.3,0,0.4c0.1,0.4,0.4,0.6,0.8,0.6h0.6L33.9,48.9z M34.1,41.8h-5v-0.5c0.1-0.1,0.2-0.2,0.3-0.3
			c0.1-0.1,5.1-7.7,14.1-10.6l1,2.6c-2.2,0.7-4.2,1.8-6,3.3C36.7,37.9,35.2,39.8,34.1,41.8z M52,26.3c-0.1,0.9-0.9,1.5-1.8,1.5
			c-0.3,0-0.6,0-0.8,0l0,0c-0.2,0-0.3,0-0.4,0.1c-0.3,0.2-0.4,0.6-0.3,1l1.2,3.3c-1.3,0-2.5,0.2-3.7,0.5l-1.3-3.5
			c-0.2-0.4-0.6-0.6-1-0.5c-7.6,2.1-12.6,7.5-14.7,10v-4.8c0-0.2,0-0.3-0.1-0.5c4.3-4.3,11.4-9.2,21.2-9.2
			C51.4,24.1,52.2,25.1,52,26.3z M26.5,50.6h-0.9V37.4c0-0.4-0.3-0.8-0.7-0.8c-0.5-0.1-0.9,0.3-0.9,0.8v13.2h-4.4
			c-0.5,0-0.9-0.4-0.9-0.9V33.9c0-0.5,0.4-0.9,0.9-0.9h4.4v1.8c0,0.4,0.3,0.8,0.7,0.8c0.5,0.1,0.9-0.3,0.9-0.8v-1.8h0.9
			c0.5,0,0.9,0.4,0.9,0.9v15.8C27.5,50.2,27,50.6,26.5,50.6z M36,54.3l-0.7-0.9l0.4-1.1c0.1-0.2,0-0.4-0.1-0.6l-0.6-1l0.6-1
			c0.1-0.2,0.1-0.4,0.1-0.6l-0.3-1h5c0.3,0,0.7-0.2,0.8-0.5c0.7-1.9,1.9-3.6,3.6-4.7h11.1c1.7,1.2,2.9,2.8,3.6,4.7
			c0.1,0.3,0.4,0.5,0.8,0.5h5l-0.3,1c-0.1,0.2,0,0.4,0.1,0.6l0.6,1l-0.6,1c-0.1,0.2-0.1,0.4-0.1,0.6l0.4,1.1l-0.7,0.9
			c-0.1,0.2-0.2,0.4-0.2,0.6l0,0.1H36.2l0-0.1C36.2,54.7,36.2,54.5,36,54.3z M63.6,56.8c-0.2,0.1-0.3,0.4-0.3,0.6l-0.1,1.2l-1,0.6
			c-0.2,0.1-0.3,0.3-0.4,0.5l-0.3,1.1l-1.1,0.4c-0.2,0.1-0.4,0.2-0.5,0.4l-0.5,1.1l-1.2,0.2c-0.2,0-0.4,0.2-0.5,0.3l-0.7,1l-1.2,0
			c-0.2,0-0.4,0.1-0.6,0.2l-0.8,0.8L53.3,65c-0.2,0-0.4,0-0.6,0.1l-1,0.7l-1.1-0.5c-0.2-0.1-0.4-0.1-0.6,0l-1.1,0.5l-1-0.7
			c-0.2-0.1-0.4-0.2-0.6-0.1l-1.1,0.3l-0.8-0.8c-0.2-0.2-0.4-0.2-0.6-0.2l-1.2,0l-0.7-1c-0.1-0.2-0.3-0.3-0.5-0.3l-1.2-0.2l-0.5-1.1
			c-0.1-0.2-0.3-0.4-0.5-0.4L39,60.8l-0.3-1.1c-0.1-0.2-0.2-0.4-0.4-0.5l-1-0.6l-0.1-1.2c0-0.2-0.1-0.4-0.3-0.6l-0.2-0.2h27
			L63.6,56.8z"/>
	</g>
</g>
</svg>
