<?xml version="1.0" encoding="utf-8"?>
<!-- Generator: Adobe Illustrator 23.0.3, SVG Export Plug-In . SVG Version: 6.00 Build 0)  -->
<svg version="1.1" id="Layer_1" xmlns="http://www.w3.org/2000/svg" xmlns:xlink="http://www.w3.org/1999/xlink" x="0px" y="0px"
	 viewBox="0 0 90 90" style="enable-background:new 0 0 90 90;" xml:space="preserve">
<style type="text/css">
	.st0{opacity:0.1;}
	.st1{fill:#2962FF;}
</style>
<g class="st0">
	<circle class="st1" cx="45" cy="45" r="45"/>
</g>
<g>
	<path class="st1" d="M68.4,41.4c0-0.4-0.3-0.8-0.8-0.8c0,0-0.2,0-0.2,0H45.7V29.8l4.6-3.2c1-0.7,1.3-2.1,0.6-3.1
		c-0.7-1-2.1-1.3-3.1-0.6l0,0L24,39.4c-1,0.7-1.3,2.1-0.6,3.1c0.3,0.5,0.8,0.8,1.4,0.9c0.1,0,0.3,0,0.4,0c0.4,0,0.9-0.1,1.3-0.4
		l3.6-2.5v17h-7.7c-0.4,0-0.8,0.3-0.8,0.8v0v8.4c0,0.4,0.3,0.8,0.8,0.8h45.3c0.4,0,0.8-0.3,0.8-0.8V41.4z M41.3,32.8v16.4h-6.8V37.5
		L41.3,32.8z M34.5,50.7h32.2v6.9H34.5V50.7z M66.9,42.1v7h-21v-7H66.9z M44.3,49.1H43V31.7l1.3-0.9V49.1z M25.6,41.8
		c-0.3,0.2-0.7,0.2-0.9-0.1s-0.2-0.7,0.1-0.9c0,0,0,0,0.1,0l23.9-16.5c0.3-0.2,0.7-0.1,0.9,0.2c0.2,0.3,0.1,0.7-0.2,0.9L33.4,36.5
		L25.6,41.8z M31.7,39.4l1.3-0.9v19h-1.3L31.7,39.4z M66.9,66H23.2v-6.9h43.6V66z"/>
</g>
</svg>
